<?xml version="1.0" encoding="UTF-8" standalone="no"?>
<!-- Created with Inkscape (http://www.inkscape.org/) -->

<svg
   width="40.299999mm"
   height="128.5mm"
   viewBox="0 0 40.299999 128.5"
   version="1.1"
   id="svg1"
   sodipodi:docname="SineBank.svg"
   inkscape:version="1.4.2 (f4327f4, 2025-05-13)"
   xml:space="preserve"
   xmlns:inkscape="http://www.inkscape.org/namespaces/inkscape"
   xmlns:sodipodi="http://sodipodi.sourceforge.net/DTD/sodipodi-0.dtd"
   xmlns="http://www.w3.org/2000/svg"
   xmlns:svg="http://www.w3.org/2000/svg"><sodipodi:namedview
     id="namedview1"
     pagecolor="#ffffff"
     bordercolor="#000000"
     borderopacity="0.25"
     inkscape:showpageshadow="2"
     inkscape:pageopacity="0.0"
     inkscape:pagecheckerboard="0"
     inkscape:deskcolor="#d1d1d1"
     inkscape:document-units="mm"
     inkscape:zoom="2.2349852"
     inkscape:cx="51.678195"
     inkscape:cy="234.90088"
     inkscape:window-width="3840"
     inkscape:window-height="2036"
     inkscape:window-x="-12"
     inkscape:window-y="-12"
     inkscape:window-maximized="1"
     inkscape:current-layer="layer1" /><defs
     id="defs1" /><g
     inkscape:label="artwork"
     inkscape:groupmode="layer"
     id="layer1"><rect
       style="fill:#a6a6a6;fill-opacity:1;stroke-width:0.255957"
       id="rect8"
       width="40.299999"
       height="128.5"
       x="5.364418e-07"
       y="7.9936058e-15"
       inkscape:label="background" /><path
       d="m 14.215464,127.07419 v -0.44097 q 0.11989,0.1006 0.260449,0.15159 0.14056,0.0496 0.283876,0.0496 0.08406,0 0.146072,-0.0152 0.06339,-0.0152 0.104731,-0.0413 0.04272,-0.0276 0.06339,-0.0634 0.02067,-0.0372 0.02067,-0.0799 0,-0.0579 -0.03307,-0.10335 -0.03307,-0.0455 -0.09095,-0.0841 -0.0565,-0.0386 -0.135048,-0.0744 -0.07855,-0.0358 -0.169499,-0.073 -0.23151,-0.0965 -0.345887,-0.23565 -0.112999,-0.13918 -0.112999,-0.33624 0,-0.15434 0.06201,-0.26458 0.06201,-0.11162 0.16812,-0.18328 0.107487,-0.0717 0.248047,-0.10473 0.14056,-0.0344 0.297656,-0.0344 0.15434,0 0.272851,0.0193 0.11989,0.0179 0.220486,0.0565 v 0.41203 q -0.04961,-0.0345 -0.108865,-0.0606 -0.05788,-0.0262 -0.119889,-0.0427 -0.06201,-0.0179 -0.124023,-0.0262 -0.06063,-0.008 -0.115755,-0.008 -0.07579,0 -0.137804,0.0152 -0.06201,0.0138 -0.104731,0.04 -0.04272,0.0262 -0.06615,0.0634 -0.02343,0.0358 -0.02343,0.0813 0,0.0496 0.02618,0.0896 0.02618,0.0386 0.07441,0.0744 0.04823,0.0345 0.117134,0.0689 0.0689,0.0331 0.155718,0.0689 0.118511,0.0496 0.212218,0.1061 0.09508,0.0551 0.162608,0.12541 0.06752,0.0703 0.103353,0.16123 0.03583,0.0896 0.03583,0.20946 0,0.16536 -0.06339,0.27836 -0.06201,0.11162 -0.169499,0.1819 -0.107487,0.0689 -0.250802,0.0992 -0.141938,0.0303 -0.300412,0.0303 -0.162609,0 -0.310059,-0.0276 -0.146072,-0.0276 -0.253559,-0.0827 z m 1.850704,-1.55856 q -0.110243,0 -0.180523,-0.0648 -0.07028,-0.0661 -0.07028,-0.16123 0,-0.0978 0.07028,-0.15986 0.07028,-0.062 0.180523,-0.062 0.111621,0 0.180523,0.062 0.07028,0.062 0.07028,0.15986 0,0.0992 -0.07028,0.1626 -0.0689,0.0634 -0.180523,0.0634 z m 0.214974,1.63436 h -0.43546 v -1.41111 h 0.43546 z m 1.729437,0 h -0.434082 v -0.78411 q 0,-0.32797 -0.234266,-0.32797 -0.112999,0 -0.186035,0.0868 -0.07304,0.0868 -0.07304,0.22048 v 0.80478 H 16.6477 v -1.41111 h 0.43546 v 0.22324 h 0.0055 q 0.155718,-0.25769 0.453374,-0.25769 0.468533,0 0.468533,0.58153 z m 1.612303,-0.58154 h -0.920529 q 0.02205,0.30731 0.387229,0.30731 0.232888,0 0.409277,-0.11025 v 0.3142 q -0.195681,0.10473 -0.508496,0.10473 -0.341753,0 -0.530544,-0.18879 -0.188791,-0.19017 -0.188791,-0.52917 0,-0.3514 0.203949,-0.55673 0.20395,-0.20532 0.501606,-0.20532 0.30868,0 0.476801,0.18327 0.169498,0.18328 0.169498,0.49748 z m -0.403765,-0.26733 q 0,-0.30317 -0.24529,-0.30317 -0.104731,0 -0.181901,0.0868 -0.07579,0.0868 -0.09233,0.21636 z m 1.484146,0.84887 v -1.97611 h 0.719336 q 0.330729,0 0.508496,0.12127 0.177766,0.12127 0.177766,0.34175 0,0.15985 -0.108865,0.27974 -0.107486,0.11989 -0.275607,0.16675 v 0.006 q 0.21084,0.0262 0.336241,0.15572 0.126779,0.12953 0.126779,0.31557 0,0.27147 -0.194303,0.43132 -0.194303,0.15848 -0.530544,0.15848 z m 0.445106,-1.64814 v 0.46854 h 0.195682 q 0.137803,0 0.216352,-0.0661 0.07993,-0.0675 0.07993,-0.18466 0,-0.21773 -0.325217,-0.21773 z m 0,0.79927 v 0.52089 h 0.241157 q 0.15434,0 0.241156,-0.0717 0.08819,-0.0717 0.08819,-0.19569 0,-0.11851 -0.08682,-0.18603 -0.08544,-0.0675 -0.239778,-0.0675 z m 2.495625,0.84887 h -0.412033 v -0.20258 h -0.0055 q -0.141938,0.23703 -0.420301,0.23703 -0.205328,0 -0.323839,-0.11576 -0.117133,-0.11713 -0.117133,-0.31143 0,-0.41066 0.486447,-0.47405 l 0.383094,-0.051 q 0,-0.23151 -0.250802,-0.23151 -0.252181,0 -0.479557,0.15021 v -0.32797 q 0.09095,-0.0469 0.248046,-0.0827 0.158475,-0.0358 0.28801,-0.0358 0.60358,0 0.60358,0.6022 z m -0.409277,-0.57327 v -0.0951 l -0.256315,0.0331 q -0.212217,0.0276 -0.212217,0.19155 0,0.0744 0.05099,0.12264 0.05237,0.0469 0.14056,0.0469 0.122645,0 0.199815,-0.0841 0.07717,-0.0854 0.07717,-0.21498 z m 2.116665,0.57327 H 24.9173 v -0.78411 q 0,-0.32797 -0.234266,-0.32797 -0.112999,0 -0.186035,0.0868 -0.07304,0.0868 -0.07304,0.22048 v 0.80478 h -0.43546 v -1.41111 h 0.43546 v 0.22324 h 0.0055 q 0.155718,-0.25769 0.453374,-0.25769 0.468533,0 0.468533,0.58153 z m 1.758375,0 h -0.522276 l -0.450618,-0.70005 h -0.0055 v 0.70005 h -0.43546 v -2.08911 h 0.43546 v 1.32981 h 0.0055 l 0.420302,-0.65181 h 0.516763 l -0.505739,0.66283 z"
       id="text1"
       style="font-weight:bold;font-size:2.82222px;font-family:'Segoe UI';-inkscape-font-specification:'Segoe UI Bold';fill:#535353;stroke-width:0.264583"
       inkscape:label="Sine Bank"
       aria-label="Sine Bank" /><path
       style="fill:#757575;fill-opacity:1;stroke:#606060;stroke-width:0.264583;stroke-opacity:1"
       d="m 3.6198042,123.65931 c 32.8081798,0 32.8081798,0 32.8081798,0"
       id="path3" /><rect
       style="fill:#535353;fill-opacity:0;stroke:#606060;stroke-width:0.277783;stroke-dasharray:none;stroke-dashoffset:0;stroke-opacity:0.580968"
       id="rect4"
       width="10.831371"
       height="36.383217"
       x="1.5943384"
       y="7.6068916"
       ry="3.9556146" /><rect
       style="fill:#535353;fill-opacity:0;stroke:#606060;stroke-width:0.277783;stroke-dasharray:none;stroke-dashoffset:0;stroke-opacity:0.580968"
       id="rect5"
       width="10.831371"
       height="36.383217"
       x="14.823499"
       y="45.177891"
       ry="3.9556146" /><rect
       style="fill:#535353;fill-opacity:0;stroke:#606060;stroke-width:0.277783;stroke-dasharray:none;stroke-dashoffset:0;stroke-opacity:0.580968"
       id="rect6"
       width="10.831371"
       height="36.383217"
       x="28.052675"
       y="83.807892"
       ry="3.9556146" /><rect
       style="fill:#535353;fill-opacity:0;stroke:#606060;stroke-width:0.194146;stroke-dasharray:none;stroke-dashoffset:0;stroke-opacity:0.580968"
       id="rect7"
       width="10.915009"
       height="17.636105"
       x="28.010857"
       y="8.5655336"
       ry="3.8871784" /><rect
       style="fill:#6f6f6f;fill-opacity:0.567613;stroke:#747474;stroke-width:0.286918;stroke-dasharray:none;stroke-dashoffset:0;stroke-opacity:0.580968"
       id="rect9"
       width="13.561782"
       height="31.000511"
       x="2.1280701"
       y="86.92865"
       ry="4.2770309" /></g><g
     inkscape:groupmode="layer"
     id="layer2"
     inkscape:label="components"
     style="display:inline"><circle
       style="display:none;fill:#0000ff;fill-opacity:1;stroke-width:0.264583"
       id="path1"
       cx="6.6751876"
       cy="15.505552"
       r="3.0553834"
       inkscape:highlight-color="#0000ff"
       inkscape:label="sineOutput1" /><circle
       style="display:none;fill:#0000ff;fill-opacity:1;stroke-width:0.264583"
       id="circle2"
       cx="7.0100241"
       cy="24.501394"
       r="3.0553834"
       inkscape:highlight-color="#0000ff"
       inkscape:label="sineOutput2" /><circle
       style="display:none;fill:#0000ff;fill-opacity:1;stroke-width:0.264583"
       id="circle3"
       cx="7.0100241"
       cy="33.497238"
       r="3.0553834"
       inkscape:highlight-color="#0000ff"
       inkscape:label="sineOutput3" /><circle
       style="display:none;fill:#0000ff;fill-opacity:1;stroke-width:0.264583"
       id="circle4"
       cx="7.0100241"
       cy="42.49308"
       r="3.0553834"
       inkscape:highlight-color="#0000ff"
       inkscape:label="sineOutput4" /><circle
       style="display:none;fill:#0000ff;fill-opacity:1;stroke-width:0.264583"
       id="path1-8"
       cx="20.1322"
       cy="52.986732"
       r="3.0553834"
       inkscape:highlight-color="#0000ff"
       inkscape:label="sineOutput5" /><circle
       style="display:none;fill:#0000ff;fill-opacity:1;stroke-width:0.264583"
       id="circle2-2"
       cx="20.1322"
       cy="61.982578"
       r="3.0553834"
       inkscape:highlight-color="#0000ff"
       inkscape:label="sineOutput6" /><circle
       style="display:none;fill:#0000ff;fill-opacity:1;stroke-width:0.264583"
       id="circle3-4"
       cx="20.1322"
       cy="70.978416"
       r="3.0553834"
       inkscape:highlight-color="#0000ff"
       inkscape:label="sineOutput7" /><circle
       style="display:none;fill:#0000ff;fill-opacity:1;stroke-width:0.264583"
       id="circle4-5"
       cx="20.1322"
       cy="79.974258"
       r="3.0553834"
       inkscape:highlight-color="#0000ff"
       inkscape:label="sineOutput8" /><circle
       style="display:none;fill:#0000ff;fill-opacity:1;stroke-width:0.264583"
       id="circle5"
       cx="33.372601"
       cy="91.827766"
       r="3.0553834"
       inkscape:highlight-color="#0000ff"
       inkscape:label="sineOutput9" /><circle
       style="display:none;fill:#0000ff;fill-opacity:1;stroke-width:0.264583"
       id="circle6"
       cx="33.372601"
       cy="100.82361"
       r="3.0553834"
       inkscape:highlight-color="#0000ff"
       inkscape:label="sineOutput10" /><circle
       style="display:none;fill:#0000ff;fill-opacity:1;stroke-width:0.264583"
       id="circle7"
       cx="33.372601"
       cy="109.81945"
       r="3.0553834"
       inkscape:highlight-color="#0000ff"
       inkscape:label="sineOutput11" /><circle
       style="display:none;fill:#0000ff;fill-opacity:1;stroke-width:0.264583"
       id="circle8"
       cx="33.372601"
       cy="118.81529"
       r="3.0553834"
       inkscape:highlight-color="#0000ff"
       inkscape:label="sineOutput12" /><ellipse
       style="display:none;fill:#ff0000;fill-opacity:1;stroke-width:0.264583"
       id="circle9"
       cx="33.372601"
       cy="15.098543"
       inkscape:highlight-color="#0000ff"
       inkscape:label="randomFrequencyButton"
       rx="3.0550001"
       ry="3.0553834" /><ellipse
       style="display:none;fill:#ff0000;fill-opacity:1;stroke-width:0.264583"
       id="ellipse2"
       cx="33.372601"
       cy="24.094383"
       inkscape:highlight-color="#0000ff"
       inkscape:label="gateInput"
       rx="3.0550001"
       ry="3.0553834" /></g></svg>
