<?xml version="1.0" encoding="UTF-8" standalone="no"?>
<!-- Created with Inkscape (http://www.inkscape.org/) -->

<svg
   width="40.299999mm"
   height="128.5mm"
   viewBox="0 0 40.299999 128.5"
   version="1.1"
   id="svg1"
   sodipodi:docname="SineBank.svg"
   inkscape:version="1.4.2 (f4327f4, 2025-05-13)"
   xml:space="preserve"
   xmlns:inkscape="http://www.inkscape.org/namespaces/inkscape"
   xmlns:sodipodi="http://sodipodi.sourceforge.net/DTD/sodipodi-0.dtd"
   xmlns="http://www.w3.org/2000/svg"
   xmlns:svg="http://www.w3.org/2000/svg"><sodipodi:namedview
     id="namedview1"
     pagecolor="#ffffff"
     bordercolor="#000000"
     borderopacity="0.25"
     inkscape:showpageshadow="2"
     inkscape:pageopacity="0.0"
     inkscape:pagecheckerboard="0"
     inkscape:deskcolor="#d1d1d1"
     inkscape:document-units="mm"
     inkscape:zoom="3.1607464"
     inkscape:cx="63.434384"
     inkscape:cy="233.48915"
     inkscape:window-width="3840"
     inkscape:window-height="2036"
     inkscape:window-x="-12"
     inkscape:window-y="-12"
     inkscape:window-maximized="1"
     inkscape:current-layer="layer1" /><defs
     id="defs1" /><g
     inkscape:label="artwork"
     inkscape:groupmode="layer"
     id="layer1"><rect
       style="fill:#a6a6a6;fill-opacity:1;stroke-width:0.255957"
       id="rect8"
       width="40.299999"
       height="128.5"
       x="5.364418e-07"
       y="7.9936058e-15"
       inkscape:label="background" /><path
       style="opacity:0.528846;fill:#757575;fill-opacity:1;stroke:#606060;stroke-width:0.264583;stroke-opacity:1"
       d="m 3.6198042,122.60097 c 32.8081798,0 32.8081798,0 32.8081798,0"
       id="path3" /><rect
       style="fill:#535353;fill-opacity:0;stroke:#606060;stroke-width:0.277783;stroke-dasharray:none;stroke-dashoffset:0;stroke-opacity:0.580968"
       id="rect4"
       width="10.831371"
       height="36.383217"
       x="1.5943384"
       y="7.6068916"
       ry="3.9556146" /><rect
       style="fill:#535353;fill-opacity:0;stroke:#606060;stroke-width:0.277783;stroke-dasharray:none;stroke-dashoffset:0;stroke-opacity:0.580968"
       id="rect5"
       width="10.831371"
       height="36.383217"
       x="14.823499"
       y="45.177891"
       ry="3.9556146" /><rect
       style="fill:#535353;fill-opacity:0;stroke:#606060;stroke-width:0.277783;stroke-dasharray:none;stroke-dashoffset:0;stroke-opacity:0.580968"
       id="rect6"
       width="10.831371"
       height="36.383217"
       x="28.052675"
       y="83.807892"
       ry="3.9556146" /><rect
       style="fill:#535353;fill-opacity:0;stroke:#606060;stroke-width:0.194146;stroke-dasharray:none;stroke-dashoffset:0;stroke-opacity:0.580968"
       id="rect7"
       width="10.915009"
       height="17.636105"
       x="28.010857"
       y="8.5655336"
       ry="3.8871784" /><rect
       style="fill:#6f6f6f;fill-opacity:0.567613;stroke:#747474;stroke-width:0.286918;stroke-dasharray:none;stroke-dashoffset:0;stroke-opacity:0.580968"
       id="rect9"
       width="13.561782"
       height="31.000511"
       x="2.1280701"
       y="86.92865"
       ry="4.2770309" /><path
       style="opacity:1;fill:#6f6f6f;fill-opacity:0.567613;stroke:#000000;stroke-width:0.426561;stroke-dasharray:none;stroke-opacity:0.412354"
       d="m 16.963384,114.636 h 1.908235 v -0.0432"
       id="path2" /><path
       style="opacity:1;fill:#6f6f6f;fill-opacity:0.567613;stroke:#000000;stroke-width:0.426561;stroke-dasharray:none;stroke-opacity:0.412354"
       d="m 16.963384,104.58177 h 1.908235 v -0.0432"
       id="path4" /><path
       style="opacity:1;fill:#6f6f6f;fill-opacity:0.567613;stroke:#000000;stroke-width:0.426561;stroke-dasharray:none;stroke-opacity:0.412354"
       d="m 16.963384,97.702564 h 1.908235 v -0.0432"
       id="path5" /><path
       style="opacity:1;fill:#6f6f6f;fill-opacity:0.567613;stroke:#000000;stroke-width:0.426561;stroke-dasharray:none;stroke-opacity:0.412354"
       d="m 16.963384,93.469228 h 1.908235 v -0.0432"
       id="path6" /><path
       style="opacity:1;fill:#6f6f6f;fill-opacity:0.567613;stroke:#000000;stroke-width:0.426561;stroke-dasharray:none;stroke-opacity:0.412354"
       d="m 16.963384,90.823393 h 1.908235 v -0.0432"
       id="path7" /><path
       style="opacity:1;fill:#6f6f6f;fill-opacity:0.567613;stroke:#000000;stroke-width:0.426561;stroke-dasharray:none;stroke-opacity:0.412354"
       d="m 16.963384,89.765059 h 1.908235 v -0.0432"
       id="path8" /><g
       id="text9"
       style="font-weight:bold;font-size:3.88056px;font-family:Georgia;-inkscape-font-specification:'Georgia Bold';stroke:#000000;stroke-width:1.274;stroke-opacity:0.412354"
       aria-label="STIL&#10;ETO"><path
         style="font-weight:normal;font-family:GOLDEN;-inkscape-font-specification:GOLDEN;stroke-opacity:0"
         d="M 18.191745,4.7779014 C 18.145178,4.7274541 18.08697,4.6770068 18.024881,4.6420818 17.714436,4.463576 17.403991,4.2889508 17.097427,4.1104451 16.915041,4.0095505 16.697729,3.9202976 16.56579,3.7573141 16.49594,3.6680612 16.461015,3.5671667 16.461015,3.4623916 c 0,-0.097014 0.02716,-0.1901475 0.08537,-0.2716392 0.147462,-0.221192 0.438504,-0.3298476 0.725665,-0.3298476 0.151342,0 0.298803,0.031044 0.426862,0.093133 0.01552,0.00776 0.02716,0.015522 0.04269,0.023283 0.170744,0.085372 0.259997,0.2134308 0.259997,0.3492504 0,0.06597 -0.0194,0.131939 -0.06209,0.1979085 l -0.252236,0.4346227 0.562681,-0.8032759 c 0,-0.031044 -0.388056,-0.228953 -0.422981,-0.2405947 -0.170744,-0.06597 -0.360892,-0.1047751 -0.551039,-0.1047751 -0.162984,0 -0.325967,0.027164 -0.473429,0.093133 -0.252236,0.1047751 -0.450145,0.3104448 -0.465667,0.5743229 v 0.038806 c 0,0.2211919 0.128059,0.4268616 0.322087,0.5549201 0.166864,0.097014 0.838201,0.4695477 1.001184,0.5665617 0.147461,0.085372 0.318206,0.1707447 0.430742,0.2988031 0.108656,0.1241779 0.159103,0.2755198 0.159103,0.4307422 0,0.089253 -0.01552,0.1785057 -0.05045,0.2638781 -0.104775,0.2716391 -0.438503,0.5122339 -0.822679,0.5355172 -0.04269,0.00388 -0.08537,0.00388 -0.124178,0.00388 -0.197908,0 -0.384175,-0.034925 -0.609248,-0.1435807 -0.159103,-0.081492 -0.228953,-0.2017892 -0.228953,-0.3337282 0,-0.077611 0.02716,-0.1591029 0.07373,-0.2367141 l 0.263878,-0.4385033 -0.539398,0.7567092 c 0,0.011642 0.232834,0.2561169 0.617009,0.3841754 0.131939,0.042686 0.271639,0.058208 0.41134,0.058208 0.04657,0 0.09313,0 0.1397,-0.00388 0.170744,-0.011642 0.353131,-0.042686 0.508353,-0.1202973 0.236714,-0.1125363 0.41522,-0.3182059 0.488951,-0.5549201 0.02328,-0.073731 0.03493,-0.1513418 0.03493,-0.228953 0,-0.1668641 -0.05433,-0.3298476 -0.162984,-0.4656672 -0.0194,-0.023283 -0.0388,-0.046567 -0.05821,-0.065969 z m 0.566567,-1.0632734 0.03493,-0.4617867 c 0.01164,-0.2017891 0.178506,-0.3608921 0.380295,-0.3608921 h 0.648054 V 5.953711 c 0,0.1125363 -0.07373,0.2095503 -0.178506,0.2444753 h 0.523876 C 20.112628,6.1826641 20.069942,6.147739 20.038897,6.1050529 20.007853,6.0623667 19.98845,6.0119194 19.98845,5.953711 V 2.8919492 h 0.648053 c 0.201789,0 0.368653,0.159103 0.380295,0.3608921 l 0.03881,0.4617867 V 2.8376214 h -2.297292 z m 2.774601,-0.8770066 c 0.108656,0.031044 0.178506,0.131939 0.178506,0.2405947 V 5.953711 c 0,0.1125363 -0.06985,0.2095503 -0.178506,0.2444753 h 0.523876 C 21.952014,6.1632613 21.878283,6.0662473 21.878283,5.953711 V 3.0782161 c 0,-0.1086557 0.07373,-0.2095502 0.178506,-0.2405947 z m 1.377602,3.3062371 V 3.0782161 c 0,-0.054328 0.0194,-0.1086557 0.05045,-0.1513418 0.03104,-0.042686 0.07373,-0.073731 0.128058,-0.089253 h -0.523875 c 0.104775,0.031044 0.178506,0.131939 0.178506,0.2405947 V 5.953711 c 0,0.058208 -0.0194,0.1086557 -0.05045,0.1513419 -0.03104,0.042686 -0.07373,0.077611 -0.128058,0.093133 h 2.153711 V 5.3211798 l -0.03881,0.4617866 c -0.0078,0.2017891 -0.174625,0.3608921 -0.376414,0.3608921 z"
         id="path9" /><path
         style="font-weight:normal;font-family:GOLDEN;-inkscape-font-specification:GOLDEN;stroke-opacity:0"
         d="m 16.336837,8.4259482 c 0.03105,0.042686 0.05045,0.097014 0.05045,0.1513419 v 2.8754949 c 0,0.112536 -0.06985,0.20955 -0.178505,0.244475 h 2.305052 v -0.877006 l -0.03493,0.461786 c -0.01164,0.201789 -0.178506,0.360892 -0.380295,0.360892 h -1.544462 v -1.571626 h 0.741186 c 0.194028,0 0.357012,0.1397 0.388056,0.329847 l 0.0039,0.02716 V 9.6599663 l -0.0039,0.027164 c -0.03104,0.1901474 -0.194028,0.3298478 -0.388056,0.3298478 H 16.554149 V 8.3910232 h 1.544462 c 0.201789,0 0.368654,0.1591029 0.380295,0.3608921 l 0.03493,0.4617866 V 8.3366953 h -2.305052 c 0.05433,0.015522 0.09701,0.046567 0.128058,0.089253 z m 2.759076,0.7877537 0.03493,-0.4617866 c 0.01164,-0.2017892 0.178506,-0.3608921 0.380295,-0.3608921 h 0.648054 v 3.0617618 c 0,0.112536 -0.07373,0.20955 -0.178506,0.244475 h 0.523875 c -0.05433,-0.01552 -0.09701,-0.05045 -0.128058,-0.09313 -0.03104,-0.04269 -0.05045,-0.09313 -0.05045,-0.151342 V 8.3910232 h 0.648053 c 0.201789,0 0.368653,0.1591029 0.380295,0.3608921 l 0.03881,0.4617866 V 8.3366953 h -2.297292 z m 4.350109,-0.8964094 c -0.942976,0 -1.711327,0.7605898 -1.711327,1.6996855 0,0.942976 0.768351,1.703566 1.711327,1.703566 0.946857,0 1.715208,-0.76059 1.715208,-1.703566 0,-0.9158123 -0.733426,-1.6647604 -1.645358,-1.6996855 z m -1.544463,1.6996855 c 0,-0.9080512 0.694621,-1.6453576 1.544463,-1.6453576 h 0.0194 c 0.01164,0 0.02716,0.00388 0.04269,0.00776 0.143581,0.027164 0.488951,0.1552224 0.488951,0.6635758 0,0.3220864 -0.302684,0.6053673 -0.62089,0.9041704 -0.329848,0.3065643 -0.667456,0.6247703 -0.671337,1.0050653 v 0.01552 c 0,0.190147 0.06985,0.357011 0.201789,0.488951 0.07761,0.07761 0.166864,0.135819 0.252237,0.178505 -0.714023,-0.14358 -1.257302,-0.811037 -1.257302,-1.618193 z m 1.544463,1.649238 c -0.08537,0 -0.329847,-0.07373 -0.496712,-0.248356 -0.128058,-0.128059 -0.190147,-0.283281 -0.190147,-0.465667 0.0039,-0.357012 0.333728,-0.667457 0.655815,-0.9662597 0.325967,-0.3065642 0.636412,-0.5937257 0.636412,-0.942976 0,-0.3647727 -0.170745,-0.547159 -0.329848,-0.6402924 -0.0039,-0.00388 -0.01164,-0.00388 -0.01552,-0.00776 h 0.01552 c 0.721784,0.1397002 1.272824,0.8149176 1.272824,1.6220743 0,0.911931 -0.694621,1.649238 -1.548344,1.649238 z"
         id="path10" /></g><path
       style="font-size:3.175px;font-family:Constantia;-inkscape-font-specification:Constantia;fill:#6d6d6d;stroke:#000000;stroke-width:1.274;stroke-opacity:0"
       d="m 15.130735,124.73556 q -0.16278,-0.0543 -0.299206,-0.0543 -0.204639,0 -0.327112,0.0992 -0.120923,0.0992 -0.120923,0.27595 0,0.10077 0.04186,0.17673 0.04341,0.076 0.114722,0.13333 0.07286,0.0574 0.164331,0.10232 0.09147,0.045 0.189136,0.0884 0.10697,0.0465 0.207739,0.0992 0.100769,0.0512 0.181384,0.12093 0.08217,0.0698 0.130225,0.16743 0.04961,0.0977 0.04961,0.22789 0,0.30851 -0.217041,0.47129 -0.215491,0.16278 -0.598413,0.16278 -0.246497,0 -0.545703,-0.0837 l -0.0093,-0.0124 0.07596,-0.5271 0.06976,-0.0109 0.10852,0.44028 q 0.164331,0.0651 0.336414,0.0651 0.230993,0 0.359668,-0.10232 0.130224,-0.10232 0.130224,-0.29146 0,-0.0992 -0.04186,-0.17363 -0.04186,-0.076 -0.113171,-0.13023 -0.06976,-0.0543 -0.15968,-0.0977 -0.08992,-0.045 -0.186035,-0.0884 -0.108521,-0.0465 -0.21084,-0.10077 -0.10232,-0.0543 -0.186035,-0.12557 -0.08217,-0.0729 -0.131775,-0.17674 -0.04961,-0.10542 -0.04961,-0.24494 0,-0.28061 0.20929,-0.43409 0.21084,-0.15347 0.558105,-0.15347 0.244947,0 0.513147,0.0574 l 0.01085,0.0108 -0.09147,0.48369 -0.06201,0.0108 z m 1.0542,0.008 q 0,0.0822 -0.05116,0.13488 -0.05116,0.0512 -0.131775,0.0512 -0.07751,0 -0.127124,-0.0481 -0.04806,-0.0481 -0.04806,-0.12713 0,-0.0837 0.05116,-0.13177 0.05116,-0.0496 0.134875,-0.0496 0.07596,0 0.124024,0.045 0.04806,0.0434 0.04806,0.12557 z m -0.523999,0.65732 q 0.271301,-0.0512 0.502294,-0.10852 l 0.01395,0.0109 q -0.0093,0.20153 -0.0093,0.44338 v 0.59531 q 0,0.18604 0.0031,0.25735 0.0031,0.0419 0.03876,0.0543 l 0.179834,0.0527 0.0031,0.0636 q -0.213941,-0.005 -0.365869,-0.005 -0.151929,0 -0.361219,0.005 l -0.0062,-0.0636 0.179834,-0.0527 q 0.03566,-0.0124 0.03876,-0.0481 0.0031,-0.0605 0.0031,-0.20309 v -0.51779 q 0,-0.20309 -0.0062,-0.37517 l -0.206189,-0.0558 z m 0.89917,0 q 0.260449,-0.0496 0.491442,-0.10852 l 0.0155,0.0109 v 0.17983 q 0.269751,-0.19069 0.502295,-0.19069 0.220142,0 0.344165,0.12403 0.125574,0.12247 0.125574,0.34881 v 0.54726 q 0,0.19378 0.0031,0.2868 0.0015,0.0419 0.04031,0.0543 l 0.172083,0.0527 0.0031,0.0636 q -0.204638,-0.005 -0.356567,-0.005 -0.151929,0 -0.337964,0.005 l -0.0062,-0.0636 0.155029,-0.045 q 0.03566,-0.0124 0.03876,-0.0481 0.0016,-0.0217 0.0016,-0.0977 v -0.67593 q 0,-0.19069 -0.09147,-0.27285 -0.09147,-0.0837 -0.269751,-0.0837 -0.15658,0 -0.324012,0.0899 v 0.67748 q 0,0.19378 0.0031,0.35501 0.0015,0.0419 0.03566,0.0527 l 0.16123,0.0481 0.0031,0.0636 q -0.192237,-0.005 -0.344165,-0.005 -0.151929,0 -0.359668,0.005 l -0.0062,-0.0636 0.182934,-0.0527 q 0.03411,-0.014 0.03566,-0.0481 0.0015,-0.0992 0.0015,-0.19068 v -0.52865 q 0,-0.20309 -0.0062,-0.37672 l -0.206189,-0.0558 z m 3.156396,1.25419 q -0.131775,0.0822 -0.271301,0.11782 -0.139527,0.0357 -0.258899,0.0357 -0.341065,0 -0.544153,-0.19379 -0.203089,-0.19533 -0.203089,-0.54105 0,-0.34416 0.193787,-0.56275 0.195337,-0.2186 0.520899,-0.2186 0.272851,0 0.42478,0.16434 0.151929,0.16278 0.151929,0.45113 0,0.0434 -0.0047,0.0884 h -0.982886 q 0,0.33331 0.15658,0.47749 0.156579,0.14262 0.489892,0.14262 0.148828,0 0.31781,-0.0279 z m -0.294556,-0.78755 v -0.0465 q 0,-0.22014 -0.07131,-0.31471 -0.06976,-0.0946 -0.20929,-0.0946 -0.184485,0 -0.282153,0.13332 -0.09767,0.13333 -0.110071,0.32246 z m 1.288294,-1.27279 q 0.199987,0.006 0.389123,0.006 0.07131,-0.003 0.230994,-0.009 0.15968,-0.006 0.215491,-0.006 0.334863,0 0.505395,0.12712 0.172083,0.12558 0.172083,0.36277 0,0.38138 -0.410828,0.51935 0.240295,0.0403 0.376721,0.17829 0.137976,0.13797 0.137976,0.35191 0,0.31006 -0.224792,0.48059 -0.224793,0.16898 -0.623218,0.16898 -0.07906,0 -0.172083,-0.005 -0.09147,-0.005 -0.206188,-0.005 -0.187586,0 -0.384473,0.005 l -0.0062,-0.0667 0.190686,-0.0574 q 0.03876,-0.0109 0.04186,-0.0481 0.0016,-0.062 0.0016,-0.13798 0.0015,-0.0775 0.0015,-0.17053 v -1.25728 q 0,-0.0791 -0.0015,-0.14263 0,-0.0636 -0.0016,-0.11472 -0.0016,-0.0403 -0.03721,-0.0527 l -0.192237,-0.0605 z m 0.536401,1.09141 v 0.94103 q 0.04651,0.017 0.10697,0.0217 0.06201,0.005 0.113172,0.005 0.257348,0 0.390673,-0.12712 0.134876,-0.12713 0.134876,-0.36897 0,-0.24185 -0.136426,-0.35812 -0.134875,-0.11782 -0.437182,-0.11782 -0.08837,0 -0.172083,0.005 z m 0,-0.12402 q 0.09612,0.002 0.195337,0.002 0.229443,0 0.345715,-0.11008 0.117823,-0.11162 0.117823,-0.32246 0,-0.22169 -0.120923,-0.31781 -0.119373,-0.0977 -0.345716,-0.0977 -0.04031,0 -0.08837,0.003 -0.04806,0.002 -0.10387,0.008 z m 2.164209,0.50074 q -0.339514,0 -0.463538,0.0667 -0.124023,0.0667 -0.124023,0.22479 0,0.14728 0.08216,0.20929 0.08217,0.0605 0.223242,0.0605 0.159681,0 0.279053,-0.0543 z m -0.751892,-0.63872 q 0.302307,-0.13178 0.534851,-0.13178 0.237195,0 0.368969,0.12403 0.133326,0.12402 0.131775,0.35812 l -0.0078,0.64492 q -0.0016,0.0791 0.0031,0.12712 0.0062,0.0481 0.02791,0.0744 0.02325,0.0248 0.06821,0.0356 0.04496,0.009 0.120922,0.0109 l 0.0078,0.0605 q -0.06666,0.0264 -0.162781,0.0527 -0.09612,0.0263 -0.130224,0.0263 -0.150379,0 -0.206189,-0.15503 -0.217041,0.15658 -0.409278,0.15658 -0.21549,0 -0.347265,-0.10542 -0.130225,-0.10697 -0.130225,-0.30076 0,-0.23874 0.21239,-0.35191 0.213941,-0.11317 0.669727,-0.11317 l 0.0016,-0.12093 q 0.0015,-0.17363 -0.08837,-0.25735 -0.08992,-0.0837 -0.275952,-0.0837 -0.141076,0 -0.353467,0.0527 z m 1.409216,-0.0233 q 0.260449,-0.0496 0.491443,-0.10852 l 0.0155,0.0109 v 0.17983 q 0.269751,-0.19069 0.502295,-0.19069 0.220141,0 0.344165,0.12403 0.125574,0.12247 0.125574,0.34881 v 0.54726 q 0,0.19378 0.0031,0.2868 0.0016,0.0419 0.04031,0.0543 l 0.172082,0.0527 0.0031,0.0636 q -0.204639,-0.005 -0.356567,-0.005 -0.151929,0 -0.337964,0.005 l -0.0062,-0.0636 0.155029,-0.045 q 0.03566,-0.0124 0.03876,-0.0481 0.0016,-0.0217 0.0016,-0.0977 v -0.67593 q 0,-0.19069 -0.09147,-0.27285 -0.09147,-0.0837 -0.269751,-0.0837 -0.156579,0 -0.324011,0.0899 v 0.67748 q 0,0.19378 0.0031,0.35501 0.0016,0.0419 0.03566,0.0527 l 0.161231,0.0481 0.0031,0.0636 q -0.192236,-0.005 -0.344165,-0.005 -0.151928,0 -0.359668,0.005 l -0.0062,-0.0636 0.182935,-0.0527 q 0.03411,-0.014 0.03566,-0.0481 0.0016,-0.0992 0.0016,-0.19068 v -0.52865 q 0,-0.20309 -0.0062,-0.37672 l -0.206189,-0.0558 z m 3.471106,1.36891 q -0.207739,-0.005 -0.308508,-0.005 -0.06666,0 -0.176734,0.003 -0.05736,-0.0946 -0.136426,-0.20309 -0.21394,-0.2992 -0.460437,-0.58446 l 0.559656,-0.5426 -0.172082,-0.0481 -0.0062,-0.062 q 0.199987,0.005 0.294555,0.005 0.08527,0 0.324011,-0.005 l 0.0062,0.0636 q -0.15658,0.0403 -0.224793,0.0713 -0.06821,0.0294 -0.15968,0.11472 l -0.331763,0.30696 0.499195,0.62321 q 0.08371,0.10387 0.130224,0.13798 0.04806,0.0341 0.15968,0.0605 z m -1.626257,-2.17971 -0.0078,-0.0512 q 0.274402,-0.0527 0.505396,-0.11007 l 0.01395,0.0124 q -0.0093,0.22635 -0.0093,0.70229 v 1.01389 q 0,0.22944 0.0031,0.44958 0.0031,0.045 0.04031,0.0543 l 0.150378,0.045 0.0031,0.0636 q -0.186035,-0.005 -0.337964,-0.005 -0.151929,0 -0.359668,0.005 l -0.0062,-0.0636 0.182934,-0.0543 q 0.03101,-0.0108 0.03411,-0.0465 0.0031,-0.17518 0.0031,-0.39067 v -0.63717 q 0,-0.8046 -0.0062,-0.92553 z"
       id="text1"
       aria-label="Sine Bank" /></g><g
     inkscape:groupmode="layer"
     id="layer2"
     inkscape:label="components"
     style="display:inline"><circle
       style="display:none;fill:#0000ff;fill-opacity:1;stroke-width:0.264583"
       id="path1"
       cx="6.6751876"
       cy="15.505552"
       r="3.0553834"
       inkscape:highlight-color="#0000ff"
       inkscape:label="sineOutput1" /><circle
       style="display:none;fill:#0000ff;fill-opacity:1;stroke-width:0.264583"
       id="circle2"
       cx="7.0100241"
       cy="24.501394"
       r="3.0553834"
       inkscape:highlight-color="#0000ff"
       inkscape:label="sineOutput2" /><circle
       style="display:none;fill:#0000ff;fill-opacity:1;stroke-width:0.264583"
       id="circle3"
       cx="7.0100241"
       cy="33.497238"
       r="3.0553834"
       inkscape:highlight-color="#0000ff"
       inkscape:label="sineOutput3" /><circle
       style="display:none;fill:#0000ff;fill-opacity:1;stroke-width:0.264583"
       id="circle4"
       cx="7.0100241"
       cy="42.49308"
       r="3.0553834"
       inkscape:highlight-color="#0000ff"
       inkscape:label="sineOutput4" /><circle
       style="display:none;fill:#0000ff;fill-opacity:1;stroke-width:0.264583"
       id="path1-8"
       cx="20.1322"
       cy="52.986732"
       r="3.0553834"
       inkscape:highlight-color="#0000ff"
       inkscape:label="sineOutput5" /><circle
       style="display:none;fill:#0000ff;fill-opacity:1;stroke-width:0.264583"
       id="circle2-2"
       cx="20.1322"
       cy="61.982578"
       r="3.0553834"
       inkscape:highlight-color="#0000ff"
       inkscape:label="sineOutput6" /><circle
       style="display:none;fill:#0000ff;fill-opacity:1;stroke-width:0.264583"
       id="circle3-4"
       cx="20.1322"
       cy="70.978416"
       r="3.0553834"
       inkscape:highlight-color="#0000ff"
       inkscape:label="sineOutput7" /><circle
       style="display:none;fill:#0000ff;fill-opacity:1;stroke-width:0.264583"
       id="circle4-5"
       cx="20.1322"
       cy="79.974258"
       r="3.0553834"
       inkscape:highlight-color="#0000ff"
       inkscape:label="sineOutput8" /><circle
       style="display:none;fill:#0000ff;fill-opacity:1;stroke-width:0.264583"
       id="circle5"
       cx="33.372601"
       cy="91.827766"
       r="3.0553834"
       inkscape:highlight-color="#0000ff"
       inkscape:label="sineOutput9" /><circle
       style="display:none;fill:#0000ff;fill-opacity:1;stroke-width:0.264583"
       id="circle6"
       cx="33.372601"
       cy="100.82361"
       r="3.0553834"
       inkscape:highlight-color="#0000ff"
       inkscape:label="sineOutput10" /><circle
       style="display:none;fill:#0000ff;fill-opacity:1;stroke-width:0.264583"
       id="circle7"
       cx="33.372601"
       cy="109.81945"
       r="3.0553834"
       inkscape:highlight-color="#0000ff"
       inkscape:label="sineOutput11" /><circle
       style="display:none;fill:#0000ff;fill-opacity:1;stroke-width:0.264583"
       id="circle8"
       cx="33.372601"
       cy="118.81529"
       r="3.0553834"
       inkscape:highlight-color="#0000ff"
       inkscape:label="sineOutput12" /><ellipse
       style="display:none;fill:#ff0000;fill-opacity:1;stroke-width:0.264583"
       id="circle9"
       cx="33.372601"
       cy="15.098543"
       inkscape:highlight-color="#0000ff"
       inkscape:label="randomFrequencyButton"
       rx="3.0550001"
       ry="3.0553834" /><ellipse
       style="display:none;fill:#ff0000;fill-opacity:1;stroke-width:0.264583"
       id="ellipse2"
       cx="33.372601"
       cy="24.094383"
       inkscape:highlight-color="#0000ff"
       inkscape:label="gateInput"
       rx="3.0550001"
       ry="3.0553834" /></g></svg>
