<?xml version="1.0" encoding="UTF-8" standalone="no"?>
<!-- Created with Inkscape (http://www.inkscape.org/) -->

<svg
   width="40.299999mm"
   height="128.5mm"
   viewBox="0 0 40.299999 128.5"
   version="1.1"
   id="svg1"
   sodipodi:docname="SineBank.svg"
   inkscape:version="1.4.2 (f4327f4, 2025-05-13)"
   xml:space="preserve"
   xmlns:inkscape="http://www.inkscape.org/namespaces/inkscape"
   xmlns:sodipodi="http://sodipodi.sourceforge.net/DTD/sodipodi-0.dtd"
   xmlns="http://www.w3.org/2000/svg"
   xmlns:svg="http://www.w3.org/2000/svg"><sodipodi:namedview
     id="namedview1"
     pagecolor="#ffffff"
     bordercolor="#000000"
     borderopacity="0.25"
     inkscape:showpageshadow="2"
     inkscape:pageopacity="0.0"
     inkscape:pagecheckerboard="0"
     inkscape:deskcolor="#d1d1d1"
     inkscape:document-units="mm"
     inkscape:zoom="2.2349852"
     inkscape:cx="51.678195"
     inkscape:cy="234.90088"
     inkscape:window-width="3840"
     inkscape:window-height="2036"
     inkscape:window-x="-12"
     inkscape:window-y="-12"
     inkscape:window-maximized="1"
     inkscape:current-layer="layer2" /><defs
     id="defs1" /><g
     inkscape:label="artwork"
     inkscape:groupmode="layer"
     id="layer1"><rect
       style="fill:#34115e;fill-opacity:1;stroke-width:0.264583"
       id="rect8"
       width="42.262585"
       height="130.93115"
       x="-0.47353035"
       y="-1.0654433" /><path
       style="font-size:3.175px;font-family:'MCF Joker';-inkscape-font-specification:'MCF Joker';white-space:pre;inline-size:12.9971;fill:#dbe3de;stroke-width:0.264583"
       d="m 10.34825,5.0641501 h -0.187325 l -0.15875,-0.56515 h 1.362075 l 0.19685,0.56515 q -0.14605,0.028575 -0.26035,0.0889 -0.111125,0.05715 -0.19685,0.130175 l 0.4572,0.263525 v 0.635 q 0,0.092075 -0.03492,0.174625 -0.03492,0.079375 -0.09843,0.142875 -0.06032,0.060325 -0.142875,0.09525 -0.08255,0.034925 -0.174625,0.034925 h -1.0795 l 0.219075,-0.1777999 q -0.0889,-0.117475 -0.0889,-0.269875 v -0.43815 H 10.7229 v 0.17145 q 0,0.060325 0.0381,0.104775 0.04128,0.041275 0.09843,0.047625 0.05715,-0.00635 0.09525,-0.047625 0.04128,-0.04445 0.04128,-0.104775 v -0.0762 l -0.835025,-0.4826 v -0.136525 z m 0.631825,0.14605 v -0.066675 q 0.0254,-0.0254 0.04763,-0.04445 0.02223,-0.01905 0.04763,-0.034925 H 10.7229 Z m 1.336676,1.4192249 h -0.69215 l 0.130175,-0.1079499 v -1.30175 l 0.187325,-0.155575 h -0.187325 l -0.15875,-0.56515 h 0.720725 z m 0.380998,-1.5652749 v 0 h -0.187325 l -0.15875,-0.56515 h 1.362075 l 0.19685,0.56515 V 6.629425 H 13.348624 V 5.0641501 H 13.072399 V 6.629425 h -0.69215 l 0.130175,-0.1079499 v -1.30175 l 0.187325,-0.155575 z m 2.813051,0 q -0.15875,0.03175 -0.2794,0.09525 -0.117475,0.0635 -0.206375,0.14605 -0.0889,0.08255 -0.149225,0.1778 -0.06033,0.092075 -0.1016,0.18415 -0.0381,0.0889 -0.06033,0.17145 -0.01905,0.079375 -0.02858,0.136525 0.01587,0.041275 0.0508,0.066675 0.0381,0.0254 0.08573,0.0254 h 0.55245 q 0.0635,-0.08255 0.0889,-0.174625 0.02858,-0.092075 -0.01587,-0.18415 0.0381,0.034925 0.05715,0.085725 0.01587,0.04445 0.01905,0.1143 0.0063,0.066675 -0.02858,0.15875 l -0.20955,0.5619749 h -1.3081 L 14.19635,6.4484501 q -0.04128,-0.05715 -0.06668,-0.123825 -0.02223,-0.06985 -0.02223,-0.142875 v -0.962025 l 0.187325,-0.155575 H 14.10745 l -0.155575,-0.56515 h 1.3589 z m -0.8382,0.504825 q 0.0635,-0.19685 0.15875,-0.3175 0.09842,-0.12065 0.193675,-0.187325 H 14.6726 Z m 1.908175,0.9525 v -1.30175 L 16.7681,5.0641501 h -0.187325 l -0.15875,-0.56515 H 17.7841 l 0.19685,0.56515 q -0.14605,0.028575 -0.26035,0.0889 -0.111125,0.05715 -0.19685,0.130175 l 0.4572,0.263525 v 0.631825 q 0,0.092075 -0.03493,0.174625 -0.03492,0.08255 -0.09842,0.14605 -0.06032,0.060325 -0.142875,0.09525 -0.07937,0.034925 -0.17145,0.034925 H 16.4506 Z m 0.64135,-0.79375 q -0.0254,0.073025 -0.04445,0.136525 -0.01588,0.060325 -0.02223,0.104775 -0.0127,0.053975 -0.0127,0.098425 h 0.123825 q 0.0635,0 0.10795,-0.04445 0.04445,-0.04445 0.04445,-0.10795 v -0.0762 z m -0.07937,-0.15875 q 0.0635,-0.19685 0.161925,-0.3175 0.09842,-0.12065 0.1905,-0.187325 H 17.14275 Z m 1.863723,-0.504825 h -0.8382 l -0.15875,-0.56515 h 1.362075 l 0.19685,0.56515 v 1.1176 q 0,0.092075 -0.03493,0.174625 -0.03492,0.079375 -0.09842,0.142875 -0.06032,0.060325 -0.142875,0.09525 -0.08255,0.034925 -0.174625,0.034925 h -0.498475 q -0.09207,0 -0.174625,-0.034925 -0.08255,-0.034925 -0.14605,-0.09525 -0.06032,-0.0635 -0.09525,-0.142875 -0.03493,-0.08255 -0.03493,-0.174625 v -1.0033 h 0.606425 q 0.05397,0.053975 0.09207,0.13335 0.04128,0.0762 0.06668,0.15875 0.02858,0.08255 0.04445,0.1651 0.01905,0.08255 0.02858,0.14605 z m -0.2794,0.396875 0.0032,0.4572 q 0.0032,0.05715 0.04127,0.1016 0.0381,0.041275 0.09525,0.047625 h 0.07938 q 0,-0.00635 -0.0095,-0.060325 -0.0064,-0.05715 -0.02858,-0.142875 -0.02223,-0.085725 -0.06668,-0.1905 -0.04128,-0.10795 -0.1143,-0.212725 z m 1.225551,-0.396875 v 0 h -0.187325 l -0.15875,-0.56515 h 1.362075 l 0.19685,0.56515 V 6.629425 H 20.603499 V 5.0641501 H 20.327274 V 6.629425 h -0.69215 l 0.130175,-0.1079499 v -1.30175 l 0.187325,-0.155575 z m 1.971675,0.504825 q 0.0635,-0.19685 0.15875,-0.3175 0.09843,-0.12065 0.193675,-0.187325 h -0.193675 v -0.56515 h 0.4826 l 0.19685,0.56515 q -0.14605,0.028575 -0.26035,0.0889 -0.111125,0.05715 -0.19685,0.130175 l 0.4572,0.263525 V 6.629425 h -0.695325 l 0.130175,-0.1079499 v -0.682625 l -0.193675,-0.111125 q -0.0254,0.073025 -0.04445,0.136525 -0.01587,0.060325 -0.02222,0.104775 -0.0127,0.053975 -0.0127,0.098425 V 6.629425 h -0.69215 l 0.130175,-0.1079499 v -1.30175 l 0.18415,-0.155575 h -0.18415 l -0.15875,-0.56515 h 0.720725 z"
       id="text8"
       inkscape:label="Title"
       transform="matrix(2.7070405,0,0,2.5003261,-24.413834,-7.6970303)"
       aria-label="Sine Bank" /></g><g
     inkscape:groupmode="layer"
     id="layer2"
     inkscape:label="components"
     style="display:none"><circle
       style="fill:#0000ff;fill-opacity:1;stroke-width:0.264583"
       id="path1"
       cx="6.6751876"
       cy="15.505552"
       r="3.0553834"
       inkscape:highlight-color="#0000ff"
       inkscape:label="sineOutput1" /><circle
       style="fill:#0000ff;fill-opacity:1;stroke-width:0.264583"
       id="circle2"
       cx="7.0100241"
       cy="24.501394"
       r="3.0553834"
       inkscape:highlight-color="#0000ff"
       inkscape:label="sineOutput2" /><circle
       style="fill:#0000ff;fill-opacity:1;stroke-width:0.264583"
       id="circle3"
       cx="7.0100241"
       cy="33.497238"
       r="3.0553834"
       inkscape:highlight-color="#0000ff"
       inkscape:label="sineOutput3" /><circle
       style="fill:#0000ff;fill-opacity:1;stroke-width:0.264583"
       id="circle4"
       cx="7.0100241"
       cy="42.49308"
       r="3.0553834"
       inkscape:highlight-color="#0000ff"
       inkscape:label="sineOutput4" /><circle
       style="fill:#0000ff;fill-opacity:1;stroke-width:0.264583"
       id="path1-8"
       cx="20.1322"
       cy="52.986732"
       r="3.0553834"
       inkscape:highlight-color="#0000ff"
       inkscape:label="sineOutput5" /><circle
       style="fill:#0000ff;fill-opacity:1;stroke-width:0.264583"
       id="circle2-2"
       cx="20.1322"
       cy="61.982578"
       r="3.0553834"
       inkscape:highlight-color="#0000ff"
       inkscape:label="sineOutput6" /><circle
       style="fill:#0000ff;fill-opacity:1;stroke-width:0.264583"
       id="circle3-4"
       cx="20.1322"
       cy="70.978416"
       r="3.0553834"
       inkscape:highlight-color="#0000ff"
       inkscape:label="sineOutput7" /><circle
       style="fill:#0000ff;fill-opacity:1;stroke-width:0.264583"
       id="circle4-5"
       cx="20.1322"
       cy="79.974258"
       r="3.0553834"
       inkscape:highlight-color="#0000ff"
       inkscape:label="sineOutput8" /><circle
       style="fill:#0000ff;fill-opacity:1;stroke-width:0.264583"
       id="circle5"
       cx="33.372601"
       cy="91.827766"
       r="3.0553834"
       inkscape:highlight-color="#0000ff"
       inkscape:label="sineOutput9" /><circle
       style="fill:#0000ff;fill-opacity:1;stroke-width:0.264583"
       id="circle6"
       cx="33.372601"
       cy="100.82361"
       r="3.0553834"
       inkscape:highlight-color="#0000ff"
       inkscape:label="sineOutput10" /><circle
       style="fill:#0000ff;fill-opacity:1;stroke-width:0.264583"
       id="circle7"
       cx="33.372601"
       cy="109.81945"
       r="3.0553834"
       inkscape:highlight-color="#0000ff"
       inkscape:label="sineOutput11" /><circle
       style="fill:#0000ff;fill-opacity:1;stroke-width:0.264583"
       id="circle8"
       cx="33.372601"
       cy="118.81529"
       r="3.0553834"
       inkscape:highlight-color="#0000ff"
       inkscape:label="sineOutput12" /><ellipse
       style="fill:#ff0000;fill-opacity:1;stroke-width:0.264583"
       id="circle9"
       cx="33.372601"
       cy="15.098543"
       inkscape:highlight-color="#0000ff"
       inkscape:label="randomFrequencyButton"
       rx="3.0550001"
       ry="3.0553834" /><ellipse
       style="fill:#ff0000;fill-opacity:1;stroke-width:0.264583"
       id="ellipse2"
       cx="33.372601"
       cy="24.094383"
       inkscape:highlight-color="#0000ff"
       inkscape:label="gateInput"
       rx="3.0550001"
       ry="3.0553834" /></g></svg>
