<?xml version="1.0" encoding="UTF-8" standalone="no"?>
<!-- Created with Inkscape (http://www.inkscape.org/) -->

<svg
   width="40.299999mm"
   height="128.5mm"
   viewBox="0 0 40.299999 128.5"
   version="1.1"
   id="svg1"
   xml:space="preserve"
   sodipodi:docname="VCABank.svg"
   inkscape:version="1.4.2 (f4327f4, 2025-05-13)"
   xmlns:inkscape="http://www.inkscape.org/namespaces/inkscape"
   xmlns:sodipodi="http://sodipodi.sourceforge.net/DTD/sodipodi-0.dtd"
   xmlns="http://www.w3.org/2000/svg"
   xmlns:svg="http://www.w3.org/2000/svg"><sodipodi:namedview
     id="namedview1"
     pagecolor="#ffffff"
     bordercolor="#000000"
     borderopacity="0.25"
     inkscape:showpageshadow="2"
     inkscape:pageopacity="0.0"
     inkscape:pagecheckerboard="0"
     inkscape:deskcolor="#d1d1d1"
     inkscape:document-units="mm"
     inkscape:zoom="3.6526913"
     inkscape:cx="76.245151"
     inkscape:cy="242.83465"
     inkscape:window-width="3840"
     inkscape:window-height="2036"
     inkscape:window-x="-12"
     inkscape:window-y="-12"
     inkscape:window-maximized="1"
     inkscape:current-layer="svg1" /><defs
     id="defs1" /><g
     id="layer1"><rect
       style="fill:#a6a6a6;fill-opacity:1;stroke-width:0.255957"
       id="rect8"
       width="40.299999"
       height="128.5"
       x="5.364418e-07"
       y="7.9936058e-15" /><path
       style="opacity:0.528846;fill:#757575;fill-opacity:1;stroke:#606060;stroke-width:0.264583;stroke-opacity:1"
       d="m 3.6198042,122.60097 c 32.8081798,0 32.8081798,0 32.8081798,0"
       id="path3" /><g
       id="text9"
       style="font-weight:bold;font-size:3.88056px;font-family:Georgia;-inkscape-font-specification:'Georgia Bold';stroke:#000000;stroke-width:1.274;stroke-opacity:0.412354"
       aria-label="STIL&#10;ETO"
       transform="translate(-0.27803928)"><path
         style="font-weight:normal;font-family:GOLDEN;-inkscape-font-specification:GOLDEN;stroke-opacity:0"
         d="M 18.191745,4.7779014 C 18.145178,4.7274541 18.08697,4.6770068 18.024881,4.6420818 17.714436,4.463576 17.403991,4.2889508 17.097427,4.1104451 16.915041,4.0095505 16.697729,3.9202976 16.56579,3.7573141 16.49594,3.6680612 16.461015,3.5671667 16.461015,3.4623916 c 0,-0.097014 0.02716,-0.1901475 0.08537,-0.2716392 0.147462,-0.221192 0.438504,-0.3298476 0.725665,-0.3298476 0.151342,0 0.298803,0.031044 0.426862,0.093133 0.01552,0.00776 0.02716,0.015522 0.04269,0.023283 0.170744,0.085372 0.259997,0.2134308 0.259997,0.3492504 0,0.06597 -0.0194,0.131939 -0.06209,0.1979085 l -0.252236,0.4346227 0.562681,-0.8032759 c 0,-0.031044 -0.388056,-0.228953 -0.422981,-0.2405947 -0.170744,-0.06597 -0.360892,-0.1047751 -0.551039,-0.1047751 -0.162984,0 -0.325967,0.027164 -0.473429,0.093133 -0.252236,0.1047751 -0.450145,0.3104448 -0.465667,0.5743229 v 0.038806 c 0,0.2211919 0.128059,0.4268616 0.322087,0.5549201 0.166864,0.097014 0.838201,0.4695477 1.001184,0.5665617 0.147461,0.085372 0.318206,0.1707447 0.430742,0.2988031 0.108656,0.1241779 0.159103,0.2755198 0.159103,0.4307422 0,0.089253 -0.01552,0.1785057 -0.05045,0.2638781 -0.104775,0.2716391 -0.438503,0.5122339 -0.822679,0.5355172 -0.04269,0.00388 -0.08537,0.00388 -0.124178,0.00388 -0.197908,0 -0.384175,-0.034925 -0.609248,-0.1435807 -0.159103,-0.081492 -0.228953,-0.2017892 -0.228953,-0.3337282 0,-0.077611 0.02716,-0.1591029 0.07373,-0.2367141 l 0.263878,-0.4385033 -0.539398,0.7567092 c 0,0.011642 0.232834,0.2561169 0.617009,0.3841754 0.131939,0.042686 0.271639,0.058208 0.41134,0.058208 0.04657,0 0.09313,0 0.1397,-0.00388 0.170744,-0.011642 0.353131,-0.042686 0.508353,-0.1202973 0.236714,-0.1125363 0.41522,-0.3182059 0.488951,-0.5549201 0.02328,-0.073731 0.03493,-0.1513418 0.03493,-0.228953 0,-0.1668641 -0.05433,-0.3298476 -0.162984,-0.4656672 -0.0194,-0.023283 -0.0388,-0.046567 -0.05821,-0.065968 z m 0.566567,-1.0632734 0.03493,-0.4617867 c 0.01164,-0.2017891 0.178506,-0.3608921 0.380295,-0.3608921 h 0.648054 V 5.953711 c 0,0.1125363 -0.07373,0.2095503 -0.178506,0.2444753 h 0.523876 C 20.112628,6.1826641 20.069942,6.147739 20.038897,6.1050529 20.007853,6.0623667 19.98845,6.0119194 19.98845,5.953711 V 2.8919492 h 0.648053 c 0.201789,0 0.368653,0.159103 0.380295,0.3608921 l 0.03881,0.4617867 V 2.8376214 h -2.297292 z m 2.774601,-0.8770066 c 0.108656,0.031044 0.178506,0.131939 0.178506,0.2405947 V 5.953711 c 0,0.1125363 -0.06985,0.2095503 -0.178506,0.2444753 h 0.523876 C 21.952014,6.1632613 21.878283,6.0662473 21.878283,5.953711 V 3.0782161 c 0,-0.1086557 0.07373,-0.2095502 0.178506,-0.2405947 z m 1.377602,3.3062371 V 3.0782161 c 0,-0.054328 0.0194,-0.1086557 0.05045,-0.1513418 0.03104,-0.042686 0.07373,-0.073731 0.128058,-0.089253 h -0.523875 c 0.104775,0.031044 0.178506,0.131939 0.178506,0.2405947 v 2.875495 c 0,0.058208 -0.0194,0.1086557 -0.05045,0.1513419 -0.03104,0.042686 -0.07373,0.077611 -0.128058,0.093133 h 2.153711 V 5.3211798 l -0.03881,0.4617866 c -0.0078,0.2017891 -0.174625,0.3608921 -0.376414,0.3608921 z"
         id="path9" /><path
         style="font-weight:normal;font-family:GOLDEN;-inkscape-font-specification:GOLDEN;stroke-opacity:0"
         d="m 16.336837,8.4259482 c 0.03105,0.042686 0.05045,0.097014 0.05045,0.1513419 v 2.8754949 c 0,0.112536 -0.06985,0.20955 -0.178505,0.244475 h 2.305052 v -0.877006 l -0.03493,0.461786 c -0.01164,0.201789 -0.178506,0.360892 -0.380295,0.360892 h -1.544462 v -1.571626 h 0.741186 c 0.194028,0 0.357012,0.1397 0.388056,0.329847 l 0.0039,0.02716 V 9.6599663 l -0.0039,0.027164 c -0.03104,0.1901474 -0.194028,0.3298477 -0.388056,0.3298477 H 16.554149 V 8.3910232 h 1.544462 c 0.201789,0 0.368654,0.1591029 0.380295,0.3608921 l 0.03493,0.4617866 V 8.3366953 h -2.305052 c 0.05433,0.015522 0.09701,0.046567 0.128058,0.089253 z m 2.759076,0.7877537 0.03493,-0.4617866 c 0.01164,-0.2017892 0.178506,-0.3608921 0.380295,-0.3608921 h 0.648054 v 3.0617618 c 0,0.112536 -0.07373,0.20955 -0.178506,0.244475 h 0.523875 c -0.05433,-0.01552 -0.09701,-0.05045 -0.128058,-0.09313 -0.03104,-0.04269 -0.05045,-0.09313 -0.05045,-0.151342 V 8.3910232 h 0.648053 c 0.201789,0 0.368653,0.1591029 0.380295,0.3608921 l 0.03881,0.4617866 V 8.3366953 h -2.297292 z m 4.350109,-0.8964094 c -0.942976,0 -1.711327,0.7605898 -1.711327,1.6996855 0,0.942976 0.768351,1.703566 1.711327,1.703566 0.946857,0 1.715208,-0.76059 1.715208,-1.703566 0,-0.9158123 -0.733426,-1.6647604 -1.645358,-1.6996855 z m -1.544463,1.6996855 c 0,-0.9080512 0.694621,-1.6453576 1.544463,-1.6453576 h 0.0194 c 0.01164,0 0.02716,0.00388 0.04269,0.00776 0.143581,0.027164 0.488951,0.1552224 0.488951,0.6635758 0,0.3220864 -0.302684,0.6053673 -0.62089,0.9041704 -0.329848,0.3065644 -0.667456,0.6247704 -0.671337,1.0050654 v 0.01552 c 0,0.190147 0.06985,0.357011 0.201789,0.488951 0.07761,0.07761 0.166864,0.135819 0.252237,0.178505 -0.714023,-0.14358 -1.257302,-0.811037 -1.257302,-1.618193 z m 1.544463,1.649238 c -0.08537,0 -0.329847,-0.07373 -0.496712,-0.248356 -0.128058,-0.128059 -0.190147,-0.283281 -0.190147,-0.465667 0.0039,-0.357012 0.333728,-0.667457 0.655815,-0.9662597 0.325967,-0.3065642 0.636412,-0.5937257 0.636412,-0.942976 0,-0.3647727 -0.170745,-0.547159 -0.329848,-0.6402924 -0.0039,-0.00388 -0.01164,-0.00388 -0.01552,-0.00776 h 0.01552 c 0.721784,0.1397002 1.272824,0.8149176 1.272824,1.6220741 0,0.911931 -0.694621,1.649238 -1.548344,1.649238 z"
         id="path10" /></g></g><g
     id="layer2"
     style="display:inline"
     inkscape:label="components"><circle
       style="fill:#00ff00;fill-opacity:1;stroke:#000000;stroke-width:1.274;stroke-opacity:0"
       id="path1"
       cx="7.0435362"
       cy="19.797209"
       r="2.8042562" /><circle
       style="fill:#0000ff;stroke:#000000;stroke-width:1.274;stroke-opacity:0"
       id="circle1"
       cx="32.972713"
       cy="19.797209"
       r="2.8042562" /><circle
       style="fill:#ff0000;fill-opacity:1;stroke:#000000;stroke-width:1.274;stroke-opacity:0"
       id="circle2"
       cx="19.743532"
       cy="21.38471"
       r="2.8042562" /></g></svg>
